<svg data-v-0dd9719b="" version="1.0" xmlns="http://www.w3.org/2000/svg" xmlns:xlink="http://www.w3.org/1999/xlink" width="100%" height="100%" viewBox="0 0 340.000000 250.000000" preserveAspectRatio="xMidYMid meet" color-interpolation-filters="sRGB" style="margin: auto;"> <rect data-v-0dd9719b="" x="0" y="0" width="100%" height="100%" fill="#fff" fill-opacity="1" class="background"></rect> <rect data-v-0dd9719b="" x="0" y="0" width="100%" height="100%" fill="url(#watermark)" fill-opacity="1" class="watermarklayer"></rect> <g data-v-0dd9719b="" fill="#333" class="icon-text-wrapper icon-svg-group iconsvg" transform="translate(54.780006408691406,92.21383285522461)"><g class="iconsvg-imagesvg" transform="translate(0,0)"><g><rect fill="#333" fill-opacity="0" stroke-width="2" x="0" y="0" width="60" height="65.57233721667286" class="image-rect"></rect> <svg x="0" y="0" width="60" height="65.57233721667286" filtersec="colorsb8406294446" class="image-svg-svg primary" style="overflow: visible;"><svg xmlns="http://www.w3.org/2000/svg" viewBox="-0.000005335050900612259 0 46.28000259399414 50.57786560058594"><path d="M21.22 0v21.66a4.19 4.19 0 0 1-2.11 3.64L.36 36.12A8.52 8.52 0 0 1 0 33.66V16.72a8.48 8.48 0 0 1 1.13-4.23 8.59 8.59 0 0 1 3.11-3.11L18.9.91A8.75 8.75 0 0 1 21.22 0z" fill="#2a3294"></path><path d="M44 39.45A8.7 8.7 0 0 1 42 41l-14.62 8.46a8.6 8.6 0 0 1-8.48 0L4.24 41a8.42 8.42 0 0 1-1.95-1.56L21 28.63a4.17 4.17 0 0 1 4.21 0z" fill="#ff006f"></path><path d="M46.28 16.72v16.94a8.52 8.52 0 0 1-.37 2.46L27.16 25.3a4.23 4.23 0 0 1-2.1-3.65V0a8.89 8.89 0 0 1 2.32.91L42 9.38a8.52 8.52 0 0 1 4.24 7.34z" fill="#0087ff"></path></svg></svg> <!----></g></g> <g transform="translate(67.00000381469727,8.924915313720703)"><g data-gra="path-name" fill-rule="" class="tp-name iconsvg-namesvg" transform="translate(0,0)"><g transform="scale(1)"><g><path d="M11.07-4.63L12.73-4.63 14.22-14.98 39.06-14.98 37.57-4.63 39.15-4.63 38.56-0.32 10.48-0.32 11.07-4.63ZM15.75-31.18L40.37-31.18 38.34-16.79 15.12-16.79 16.88-29.29 15.75-31.18ZM8.19 0.4L0.99 0.4 5.17-12.33 12.38-12.33 8.19 0.4ZM12.82-14.04L5.63-14.04 5.13-21.73 12.29-21.73 12.82-14.04ZM14.13-23.45L6.93-23.45 6.43-31.14 13.59-31.14 14.13-23.45ZM23.49-27.27L23.22-25.43 32.13-25.43 32.4-27.27 23.49-27.27ZM22.59-20.75L31.5-20.75 31.68-22.23 22.77-22.23 22.59-20.75ZM19.57-10.98L18.68-4.63 20.65-4.63 21.55-10.98 19.57-10.98ZM25.47-10.98L24.57-4.63 26.5-4.63 27.4-10.98 25.47-10.98ZM33.44-10.98L31.54-10.98 30.64-4.63 32.53-4.63 33.44-10.98ZM49.77-31.95L58.81-31.95 50.49 0.36 43.29 0.36 51.39-30.38 49.77-31.95ZM73.8-31.95L81.9-31.95 77.31 0.36 70.92 0.36 75.24-30.24 73.8-31.95ZM61.69-30.33L69.97-30.33 65.92-1.21 59.13-1.21 62.95-28.57 61.69-30.33ZM61.16-24.3L59.49-11.97 55.75-11.97 57.42-24.3 61.16-24.3ZM73.22-24.3L72-11.97 68.31-11.97 69.61-24.3 73.22-24.3ZM42.3-11.92L45.54-24.3 49.05-24.3 45.9-11.92 42.3-11.92ZM122.63-31.5L121.95-26.86 109.3-26.55 108.18-18.59 122.49-18.59 121.86-14.04 107.55-14.04 105.52 0.36 96.75 0.36 98.77-14.04 84.38-14.04 85-18.59 99.41-18.59 100.48-26.32 87.84-26.01 88.47-30.64 122.63-31.5ZM153.85-31.9L152.46-28.35 164.43-28.35 160.88-2.83Q160.78-2.21 160.4-1.62 160.02-1.03 159.48-0.58 158.94-0.14 158.24 0.11 157.54 0.36 156.82 0.36L156.82 0.36 148.14 0.36 151.88-3.87 154.13-3.87 156.87-23.98 150.75-23.98 149.71-21.29 142.74-21.29 146.25-30.33 144.9-31.9 153.85-31.9ZM125.91-14.94L129.51-14.94 129.87-17.46 127.57-17.46 128.2-21.82 140.71-21.82 140.08-17.46 137.34-17.46 136.98-14.94 141.61-14.94 141.03-10.53 136.35-10.53 135.63-5.49 140.31-6.34 139.68-2.07 127.35 0.36 128.88-10.53 125.32-10.53 125.91-14.94ZM129.42-31.95L137.7-31.95 136.13-28.48 142.33-28.48 141.7-24.21 134.14-24.21 133.6-22.95 127.03-22.95 130.54-30.6 129.42-31.95ZM147.51-2.7L140.89-2.7 146.83-12.06 153.99-12.06 147.51-2.7ZM153.85-13.37L147.1-13.37 144.76-20.07 151.24-20.07 153.85-13.37Z" transform="translate(-0.9900000095367432, 31.950000762939453)"></path></g> <!----> <!----> <!----> <!----> <!----> <!----> <!----></g></g> <g data-gra="path-slogan" fill-rule="" class="tp-slogan iconsvg-slogansvg" fill="#333" transform="translate(5,38.35000228881836)"><rect x="0" height="1" y="4.185000419616699" width="15.479995727539062"></rect> <rect height="1" y="4.185000419616699" width="15.479995727539062" x="137.95999145507812"></rect> <g transform="translate(18.479995727539062,0)"><g transform="scale(1)"><path d="M5.67-7.13L5.63-7.13L3.66 0L2.44 0L0.19-8.58L1.41-8.58L3.05-1.59L3.09-1.59L5.02-8.58L6.28-8.58L8.20-1.59L8.25-1.59L9.84-8.58L11.11-8.58L8.86 0L7.64 0L5.67-7.13ZM13.50-1.03L18.66-1.03L18.66 0L12.33 0L12.33-8.58L18.56-8.58L18.56-7.59L13.50-7.59L13.50-4.92L18.19-4.92L18.19-3.89L13.50-3.89L13.50-1.03ZM21.56-8.58L25.88-1.64L25.88-8.58L27-8.58L27 0L25.69 0L21.33-6.94L21.28-6.94L21.28 0L20.16 0L20.16-8.58L21.56-8.58ZM29.63-1.03L34.92-1.03L34.92 0L28.17 0L28.17-0.94L33.42-7.59L28.55-7.59L28.55-8.58L34.92-8.58L34.92-7.59L29.63-1.03ZM37.22-5.06L41.72-5.06L41.72-8.58L42.89-8.58L42.89 0L41.72 0L41.72-3.98L37.22-3.98L37.22 0L36.05 0L36.05-8.58L37.22-8.58L37.22-5.06ZM51.47-4.27L51.47-4.27Q51.28-7.64 48.47-7.83L48.47-7.83Q45.61-7.69 45.47-4.27L45.47-4.27Q45.61-0.94 48.47-0.80L48.47-0.80Q51.28-0.98 51.47-4.27ZM52.64-4.27L52.64-4.27Q52.36 0 48.47 0.14L48.47 0.14Q44.53 0 44.25-4.27L44.25-4.27Q44.48-8.72 48.47-8.81L48.47-8.81Q52.36-8.67 52.64-4.27ZM59.67-3.19L59.67-8.58L60.84-8.58L60.84-3.05Q60.70 0.05 57.33 0.14L57.33 0.14Q54.19 0.05 54.05-2.86L54.05-2.86L54.05-8.58L55.22-8.58L55.22-3.19Q55.27-0.84 57.38-0.80L57.38-0.80Q59.67-0.84 59.67-3.19L59.67-3.19ZM70.97-1.08L70.08-1.78L70.69-2.48L71.77-1.64Q72.75-2.63 72.75-4.27L72.75-4.27Q72.56-7.64 69.75-7.83L69.75-7.83Q66.89-7.69 66.75-4.27L66.75-4.27Q66.89-0.94 69.75-0.80L69.75-0.80Q70.45-0.80 70.97-1.08L70.97-1.08ZM72.70-0.94L73.83-0.05L73.27 0.56L71.95-0.33Q71.11 0.14 69.75 0.14L69.75 0.14Q65.81 0 65.53-4.27L65.53-4.27Q65.77-8.72 69.75-8.81L69.75-8.81Q73.64-8.67 73.92-4.27L73.92-4.27Q73.88-2.20 72.70-0.94L72.70-0.94ZM75.47-8.58L76.64-8.58L76.64 0L75.47 0L75.47-8.58ZM84.28 0L83.44-2.48L79.97-2.48L79.08 0L77.91 0L81.14-8.58L82.45-8.58L85.55 0L84.28 0ZM81.70-7.31L80.34-3.52L83.02-3.52L81.75-7.31L81.70-7.31ZM87.98-8.58L92.30-1.64L92.30-8.58L93.42-8.58L93.42 0L92.11 0L87.75-6.94L87.70-6.94L87.70 0L86.58 0L86.58-8.58L87.98-8.58ZM94.50-1.92L94.50-2.77L95.58-2.77L95.58-2.16Q95.58-0.75 96.89-0.75L96.89-0.75Q98.25-0.75 98.25-2.25L98.25-2.25L98.25-8.58L99.42-8.58L99.42-2.30Q99.38 0.09 96.94 0.14L96.94 0.14Q94.64 0.09 94.50-1.92L94.50-1.92ZM106.88-3.19L106.88-8.58L108.05-8.58L108.05-3.05Q107.91 0.05 104.53 0.14L104.53 0.14Q101.39 0.05 101.25-2.86L101.25-2.86L101.25-8.58L102.42-8.58L102.42-3.19Q102.47-0.84 104.58-0.80L104.58-0.80Q106.88-0.84 106.88-3.19L106.88-3.19ZM111.23-8.58L115.55-1.64L115.55-8.58L116.67-8.58L116.67 0L115.36 0L111-6.94L110.95-6.94L110.95 0L109.83 0L109.83-8.58L111.23-8.58Z" transform="translate(-0.1875, 8.8125)"></path></g></g></g></g></g><defs v-gra="od"></defs></svg>